<?xml version="1.0" encoding="utf-8"?>
<!-- Generator: Adobe Illustrator 23.1.0, SVG Export Plug-In . SVG Version: 6.00 Build 0)  -->
<svg version="1.1" id="Capa_1" xmlns="http://www.w3.org/2000/svg" xmlns:xlink="http://www.w3.org/1999/xlink" x="0px" y="0px"
	 viewBox="0 0 400 150" style="enable-background:new 0 0 400 150;" xml:space="preserve">
<style type="text/css">
	.st0{fill:#143D99;}
	.st1{fill:#FFFFFF;}
</style>
<g>
	<g>
		<rect x="1.83" y="28.62" class="st0" width="92.76" height="92.76"/>
		<g>
			<path class="st1" d="M38.91,89.73v7.43L4.41,80.79v-6.02l34.51-16.37v7.43L12.9,77.61v0.35L38.91,89.73z"/>
			<path class="st1" d="M86.96,49.56l-29.37,53.62l-7.25-3.72l28.05-50.43H47.76l0.18-7.79h39.02V49.56z"/>
		</g>
	</g>
	<g>
		<path class="st0" d="M126.2,46.2v55.56h-8.14V46.2h-17.69v-7.79h43.53v7.79H126.2z"/>
		<path class="st0" d="M153.8,101.76h-8.14V58.41h7.79v7.08h0.35c0.83-2.3,2.52-4.26,5.09-5.88c2.57-1.62,5.09-2.43,7.56-2.43
			c2.36,0,4.36,0.35,6.02,1.06l-2.48,7.87c-1-0.41-2.6-0.62-4.78-0.62c-3.07,0-5.74,1.24-8.01,3.72c-2.27,2.48-3.41,5.37-3.41,8.67
			V101.76z"/>
		<path class="st0" d="M194.59,103.18c-6.37,0-11.62-2.18-15.75-6.55c-4.13-4.36-6.19-9.88-6.19-16.54c0-6.61,2-12.11,6.02-16.5
			c4.01-4.39,9.14-6.59,15.39-6.59c6.43,0,11.55,2.08,15.35,6.24c3.8,4.16,5.71,9.98,5.71,17.47l-0.09,0.88h-34.06
			c0.12,4.25,1.53,7.67,4.25,10.26c2.71,2.6,5.96,3.89,9.73,3.89c5.19,0,9.26-2.6,12.21-7.79l7.26,3.54
			c-1.95,3.66-4.64,6.52-8.1,8.58C202.86,102.15,198.95,103.18,194.59,103.18z M181.58,74.87h24.86c-0.24-3.01-1.46-5.5-3.67-7.48
			c-2.21-1.98-5.18-2.96-8.89-2.96c-3.07,0-5.71,0.94-7.92,2.83C183.75,69.15,182.29,71.68,181.58,74.87z"/>
		<path class="st0" d="M233.07,43.46c0,1.59-0.56,2.95-1.68,4.07c-1.12,1.12-2.48,1.68-4.07,1.68c-1.59,0-2.95-0.56-4.07-1.68
			c-1.12-1.12-1.68-2.48-1.68-4.07s0.56-2.95,1.68-4.07c1.12-1.12,2.48-1.68,4.07-1.68c1.59,0,2.95,0.56,4.07,1.68
			C232.51,40.51,233.07,41.87,233.07,43.46z M231.39,58.41v43.35h-8.14V58.41H231.39z"/>
		<path class="st0" d="M242.01,58.41h7.79v6.02h0.35c1.24-2.12,3.14-3.89,5.71-5.31c2.57-1.42,5.23-2.12,8.01-2.12
			c5.31,0,9.39,1.52,12.25,4.56c2.86,3.04,4.29,7.36,4.29,12.96v27.25h-8.14V75.04c-0.18-7.08-3.75-10.62-10.71-10.62
			c-3.24,0-5.96,1.31-8.14,3.94c-2.18,2.63-3.27,5.77-3.27,9.42v23.98h-8.14V58.41z"/>
		<path class="st0" d="M304.91,102.47c-3.54,0-6.47-1.09-8.8-3.27c-2.33-2.18-3.52-5.22-3.58-9.11V65.84h-7.61v-7.43h7.61V45.14
			h8.14v13.27h10.62v7.43h-10.62v21.59c0,2.89,0.56,4.85,1.68,5.88c1.12,1.03,2.39,1.55,3.81,1.55c0.65,0,1.28-0.07,1.9-0.22
			c0.62-0.15,1.19-0.34,1.72-0.57l2.57,7.25C310.22,102.09,307.75,102.47,304.91,102.47z"/>
		<path class="st0" d="M334.64,57c6.02,0,10.76,1.61,14.24,4.82c3.48,3.22,5.22,7.62,5.22,13.23v26.72h-7.78v-6.02h-0.35
			c-3.36,4.95-7.84,7.43-13.45,7.43c-4.78,0-8.77-1.42-11.99-4.25c-3.22-2.83-4.82-6.37-4.82-10.62c0-4.48,1.69-8.05,5.09-10.71
			c3.39-2.65,7.92-3.98,13.58-3.98c4.84,0,8.82,0.88,11.94,2.65v-1.86c0-2.83-1.12-5.23-3.36-7.21c-2.24-1.98-4.87-2.96-7.87-2.96
			c-4.54,0-8.14,1.92-10.79,5.75l-7.17-4.51C321.07,59.83,326.91,57,334.64,57z M324.11,88.49c0,2.12,0.9,3.89,2.7,5.31
			c1.8,1.42,3.91,2.12,6.33,2.12c3.42,0,6.47-1.27,9.16-3.81c2.68-2.54,4.03-5.51,4.03-8.94c-2.54-2-6.08-3.01-10.62-3.01
			c-3.3,0-6.06,0.8-8.27,2.39C325.22,84.16,324.11,86.13,324.11,88.49z"/>
		<path class="st0" d="M398.17,74.78v6.02l-34.5,16.37v-7.43l26.01-11.77v-0.35l-26.01-11.77v-7.43L398.17,74.78z"/>
	</g>
</g>
</svg>
